<svg xmlns="http://www.w3.org/2000/svg" version="1.1" xmlns:xlink="http://www.w3.org/1999/xlink" xmlns:svgjs="http://svgjs.dev/svgjs" width="1000" height="1000"><style>
    #light-icon {
      display: inline;
    }
    #dark-icon {
      display: none;
    }

    @media (prefers-color-scheme: dark) {
      #light-icon {
        display: none;
      }
      #dark-icon {
        display: inline;
      }
    }
  </style><g id="light-icon"><svg xmlns="http://www.w3.org/2000/svg" version="1.1" xmlns:xlink="http://www.w3.org/1999/xlink" xmlns:svgjs="http://svgjs.dev/svgjs" width="1000" height="1000"><g clip-path="url(#SvgjsClipPath1650)"><rect width="1000" height="1000" fill="#b4b4b4"></rect><g transform="matrix(37.5,0,0,37.5,50,50)"><svg xmlns="http://www.w3.org/2000/svg" version="1.1" xmlns:xlink="http://www.w3.org/1999/xlink" xmlns:svgjs="http://svgjs.dev/svgjs" width="24" height="24"><svg width="24" height="24" viewBox="0 0 24 24" fill="none" xmlns="http://www.w3.org/2000/svg">
<path d="M3 7L6 4H9C9 4.39397 9.0776 4.78407 9.22836 5.14805C9.37913 5.51203 9.6001 5.84274 9.87868 6.12132C10.1573 6.3999 10.488 6.62087 10.8519 6.77164C11.2159 6.9224 11.606 7 12 7C12.394 7 12.7841 6.9224 13.1481 6.77164C13.512 6.62087 13.8427 6.3999 14.1213 6.12132C14.3999 5.84274 14.6209 5.51203 14.7716 5.14805C14.9224 4.78407 15 4.39397 15 4H18L21 7L20.5 12L18 10.5V20H6V10.5L3.5 12L3 7Z" fill="black" fill-opacity="0.15"></path>
<path d="M3 7L6 4H9C9 4.39397 9.0776 4.78407 9.22836 5.14805C9.37913 5.51203 9.6001 5.84274 9.87868 6.12132C10.1573 6.3999 10.488 6.62087 10.8519 6.77164C11.2159 6.9224 11.606 7 12 7C12.394 7 12.7841 6.9224 13.1481 6.77164C13.512 6.62087 13.8427 6.3999 14.1213 6.12132C14.3999 5.84274 14.6209 5.51203 14.7716 5.14805C14.9224 4.78407 15 4.39397 15 4H18L21 7L20.5 12L18 10.5V20H6V10.5L3.5 12L3 7Z" stroke="black" stroke-width="2" stroke-linecap="round" stroke-linejoin="round"></path>
</svg></svg></g></g><defs><clipPath id="SvgjsClipPath1650"><rect width="1000" height="1000" x="0" y="0" rx="250" ry="250"></rect></clipPath></defs></svg></g><g id="dark-icon"><svg xmlns="http://www.w3.org/2000/svg" version="1.1" xmlns:xlink="http://www.w3.org/1999/xlink" xmlns:svgjs="http://svgjs.dev/svgjs" width="1000" height="1000"><g clip-path="url(#SvgjsClipPath1651)"><rect width="1000" height="1000" fill="#decece"></rect><g transform="matrix(37.5,0,0,37.5,50,50)"><svg xmlns="http://www.w3.org/2000/svg" version="1.1" xmlns:xlink="http://www.w3.org/1999/xlink" xmlns:svgjs="http://svgjs.dev/svgjs" width="24" height="24"><svg width="24" height="24" viewBox="0 0 24 24" fill="none" xmlns="http://www.w3.org/2000/svg">
<path d="M3 7L6 4H9C9 4.39397 9.0776 4.78407 9.22836 5.14805C9.37913 5.51203 9.6001 5.84274 9.87868 6.12132C10.1573 6.3999 10.488 6.62087 10.8519 6.77164C11.2159 6.9224 11.606 7 12 7C12.394 7 12.7841 6.9224 13.1481 6.77164C13.512 6.62087 13.8427 6.3999 14.1213 6.12132C14.3999 5.84274 14.6209 5.51203 14.7716 5.14805C14.9224 4.78407 15 4.39397 15 4H18L21 7L20.5 12L18 10.5V20H6V10.5L3.5 12L3 7Z" fill="black" fill-opacity="0.15"></path>
<path d="M3 7L6 4H9C9 4.39397 9.0776 4.78407 9.22836 5.14805C9.37913 5.51203 9.6001 5.84274 9.87868 6.12132C10.1573 6.3999 10.488 6.62087 10.8519 6.77164C11.2159 6.9224 11.606 7 12 7C12.394 7 12.7841 6.9224 13.1481 6.77164C13.512 6.62087 13.8427 6.3999 14.1213 6.12132C14.3999 5.84274 14.6209 5.51203 14.7716 5.14805C14.9224 4.78407 15 4.39397 15 4H18L21 7L20.5 12L18 10.5V20H6V10.5L3.5 12L3 7Z" stroke="black" stroke-width="2" stroke-linecap="round" stroke-linejoin="round"></path>
</svg></svg></g></g><defs><clipPath id="SvgjsClipPath1651"><rect width="1000" height="1000" x="0" y="0" rx="350" ry="350"></rect></clipPath></defs></svg></g></svg>