<svg width="159" height="25" viewBox="0 0 159 25" fill="none" xmlns="http://www.w3.org/2000/svg">
<path d="M11.6 24.2467C3.86667 24.22 0.213333 21.82 0.4 16.0067H7.04C7.12 17.5267 8.4 18.46 11.6 18.4867C14.4267 18.5133 15.7333 17.7133 15.7333 16.6733C15.7333 15.9533 15.3333 15.2067 13.1467 14.8867L10.2667 14.4333C6.02667 13.74 0.933333 13.2333 0.933333 7.5C0.933333 3.07333 4.53333 0.353333 11.6533 0.353333C18.08 0.353333 22.56 2.14 22.4267 8.54H15.84C15.5733 7.04667 14.32 6.11333 11.4933 6.11333C9.04 6.11333 8.02667 6.86 8.02667 7.87333C8.02667 8.51333 8.42667 9.28667 10.1333 9.55333L12.5067 9.95333C16.96 10.7 23.0667 10.8333 23.0667 16.9667C23.0667 21.8467 19.28 24.2733 11.6 24.2467ZM40.5446 1.1H47.9313V23.5H40.5446V15.3933H31.8513V23.5H24.4646V1.1H31.8513V9.20667H40.5446V1.1ZM62.1017 24.2467C54.395 24.2467 49.4083 19.4733 49.4083 12.3C49.4083 5.12667 54.395 0.353333 62.1017 0.353333C69.8083 0.353333 74.795 5.12667 74.795 12.3C74.795 19.4733 69.8083 24.2467 62.1017 24.2467ZM62.1017 17.8733C65.035 17.8733 67.4617 15.8467 67.4617 12.3C67.4617 8.75333 65.035 6.72667 62.1017 6.72667C59.1683 6.72667 56.7417 8.75333 56.7417 12.3C56.7417 15.8467 59.1683 17.8733 62.1017 17.8733ZM76.2771 23.5V1.1H88.9971C95.1038 1.1 98.7304 3.82 98.7304 9.84667C98.7304 15.8733 95.1038 18.5933 89.0238 18.5933H83.6638V23.5H76.2771ZM83.6638 12.46H88.3571C90.1438 12.46 91.2904 11.58 91.2904 9.84667C91.2904 8.11333 90.1438 7.23333 88.3837 7.23333H83.6638V12.46ZM102.426 23.9267C100.426 23.9267 98.7458 22.2733 98.7458 20.3C98.7458 18.3267 100.426 16.6733 102.426 16.6733C104.426 16.6733 106.106 18.3267 106.106 20.3C106.106 22.2733 104.426 23.9267 102.426 23.9267ZM120.151 24.2467C112.605 24.2467 107.565 19.4733 107.565 12.3C107.565 5.12667 112.605 0.353333 120.151 0.353333C125.618 0.353333 131.218 2.75333 131.965 10.3267H124.925C124.311 7.87333 122.578 6.72667 120.151 6.72667C117.218 6.72667 114.898 8.91333 114.898 12.3C114.898 15.6867 117.218 17.8733 120.151 17.8733C122.578 17.8733 124.311 16.7267 124.925 14.22H131.965C131.218 21.8467 125.671 24.2467 120.151 24.2467ZM146.008 24.2467C138.301 24.2467 133.315 19.4733 133.315 12.3C133.315 5.12667 138.301 0.353333 146.008 0.353333C153.715 0.353333 158.701 5.12667 158.701 12.3C158.701 19.4733 153.715 24.2467 146.008 24.2467ZM146.008 17.8733C148.941 17.8733 151.368 15.8467 151.368 12.3C151.368 8.75333 148.941 6.72667 146.008 6.72667C143.075 6.72667 140.648 8.75333 140.648 12.3C140.648 15.8467 143.075 17.8733 146.008 17.8733Z" fill="black"/>
</svg>
